<svg version="1.1" id="Layer_1" xmlns="http://www.w3.org/2000/svg" xmlns:xlink="http://www.w3.org/1999/xlink" x="0px" y="0px"
	 width="100%" viewBox="0 0 496 256" enable-background="new 0 0 496 256" xml:space="preserve">
<path fill="#000000" opacity="1.000000" stroke="none" 
	d="
M87.080200,189.882812 
	C84.806114,192.138290 82.912247,191.491119 80.631981,189.556442 
	C56.012527,168.668304 51.554359,128.379532 70.092857,101.929932 
	C90.903313,72.238815 131.141846,65.229919 160.542313,83.741638 
	C163.110199,85.358482 167.041534,86.234283 166.669464,91.213600 
	C160.984192,98.471565 155.517319,105.105019 149.790588,111.977348 
	C144.865891,117.834679 139.434311,122.873863 136.041504,129.891220 
	C130.463211,135.190308 126.427322,141.286530 121.891457,146.986374 
	C110.425446,161.394791 98.701065,175.597626 87.080200,189.882812 
z"/>
<path fill="#000000" opacity="1.000000" stroke="none" 
	d="
M234.126068,191.468140 
	C233.215591,168.486633 232.726913,145.857941 233.286270,123.219360 
	C233.434296,117.228317 233.788055,111.223106 233.525406,105.247337 
	C233.319092,100.552856 235.508484,99.564972 239.539352,99.761238 
	C243.147034,99.936905 246.861603,99.448387 246.327042,104.984184 
	C246.175156,106.556976 245.859695,108.321793 247.109192,109.856857 
	C249.557816,110.414261 250.564850,108.233780 251.907043,107.017342 
	C266.003448,94.241714 295.198669,95.582397 307.079498,112.194237 
	C311.703888,118.660088 314.072723,125.916306 314.203735,133.655029 
	C314.508240,151.636765 314.166199,169.629059 314.420715,187.612320 
	C314.496979,192.997787 311.281281,192.307114 307.916779,192.409470 
	C304.213898,192.522141 301.548950,192.265701 301.620972,187.262970 
	C301.851166,171.278183 301.694275,155.287766 301.681549,139.299530 
	C301.679413,136.637802 301.499268,134.023605 300.937500,131.378967 
	C297.936310,117.250702 289.042633,109.870651 274.611694,109.748917 
	C260.709900,109.631630 250.560791,117.493980 247.418442,130.817780 
	C246.652451,134.065659 246.263443,137.334702 246.278076,140.696320 
	C246.343353,155.684967 246.296204,170.674118 246.279922,185.663086 
	C246.272583,192.430328 246.261749,192.461761 239.289291,192.348953 
	C237.648010,192.322418 236.011429,192.005493 234.126068,191.468140 
z"/>
<path fill="#000000" opacity="1.000000" stroke="none" 
	d="
M389.687317,133.802185 
	C393.152863,124.737885 396.527618,116.050682 399.855194,107.345444 
	C402.966644,99.205566 405.989349,97.871269 414.752014,100.900146 
	C415.551300,102.663551 414.410370,104.089378 413.810822,105.576118 
	C397.376648,146.329163 380.920013,187.073151 364.475769,227.822113 
	C361.139069,236.090546 358.666595,237.193283 349.080811,234.460617 
	C349.130493,231.061447 350.962921,228.185364 352.158020,225.161591 
	C356.012177,215.409821 359.907715,205.668777 364.090515,196.055527 
	C365.556519,192.686203 365.339417,189.869858 363.967651,186.578751 
	C352.761505,159.693008 341.694946,132.749069 330.595306,105.818962 
	C329.972076,104.306877 329.030151,102.870193 329.266388,101.124733 
	C336.796143,97.649178 342.009979,99.433708 344.894012,106.614830 
	C353.389618,127.768349 361.812073,148.951218 370.302155,170.106949 
	C370.967987,171.766022 371.280670,173.653824 373.523376,175.488052 
	C378.948822,161.523911 384.262390,147.847656 389.687317,133.802185 
z"/>
<path fill="#000000" opacity="1.000000" stroke="none" 
	d="
M49.733833,218.245132 
	C51.514629,220.449615 53.070175,222.380127 54.433411,224.071960 
	C54.294746,226.631180 51.623009,226.092957 50.779438,228.193817 
	C53.172653,232.677567 58.073620,234.916275 61.772911,238.356018 
	C63.594673,240.049942 65.741234,241.389633 67.680130,242.964340 
	C68.891693,243.948334 70.875427,244.706711 69.535416,246.874680 
	C68.239014,248.972061 66.580437,248.595627 64.851280,247.394974 
	C57.180424,242.068512 49.515839,236.675629 43.275650,229.673691 
	C24.064310,208.117218 12.976727,182.759140 9.927024,154.181335 
	C8.119456,137.243179 11.376949,120.610046 17.315884,104.723488 
	C21.274879,94.133232 25.649715,83.581451 31.039564,73.665314 
	C46.351509,45.494671 71.176720,29.557829 101.338287,20.970737 
	C101.919579,20.805241 102.604080,21.002226 103.411636,21.394152 
	C80.484215,30.263123 59.132702,41.345230 44.028660,61.672729 
	C65.273499,40.415337 91.222595,29.166121 121.051559,24.897030 
	C120.091728,27.276987 118.386261,27.091194 116.857605,27.414536 
	C75.231903,36.219154 45.358189,60.056587 27.089226,98.310059 
	C20.268297,112.592438 20.059729,128.205292 21.639349,143.431610 
	C24.323782,169.307465 34.163532,192.929352 47.419109,215.167740 
	C48.012695,216.163559 48.807503,217.039429 49.733833,218.245132 
M18.426245,160.929810 
	C20.157576,173.883469 24.526134,186.934113 29.138165,191.750443 
	C24.083916,174.682266 18.245214,158.559082 17.460398,141.298721 
	C16.998602,147.646072 17.385920,153.931335 18.426245,160.929810 
z"/>
<path fill="#000000" opacity="1.000000" stroke="none" 
	d="
M423.269409,186.277649 
	C431.113464,174.071014 438.664032,162.103592 446.484741,150.315384 
	C448.575867,147.163467 448.337036,144.864899 446.325928,141.805527 
	C438.371948,129.705612 430.675995,117.435959 422.899689,105.219467 
	C422.108826,103.977051 421.066467,102.818626 421.179810,101.182785 
	C427.754456,97.966728 433.631775,99.360275 437.294525,105.052864 
	C442.519257,113.172958 447.677490,121.336044 452.942749,129.429626 
	C454.085510,131.186234 454.859375,133.329971 457.066772,134.340210 
	C459.449463,133.310715 460.110138,130.890228 461.306458,129.007370 
	C466.216278,121.280060 470.949860,113.441093 475.802673,105.677193 
	C479.799774,99.282272 483.697815,98.118561 491.289825,100.959862 
	C491.763184,103.039642 490.189087,104.306526 489.242706,105.781921 
	C481.423187,117.972183 473.634735,130.183533 465.667664,142.277023 
	C463.949860,144.884506 463.983185,146.783142 465.702698,149.406998 
	C473.640930,161.520157 481.355438,173.779984 489.144501,185.990829 
	C490.201874,187.648438 491.473663,189.212234 491.762390,191.242737 
	C483.689545,194.260788 478.925598,192.798157 474.597534,186.070557 
	C468.402649,176.441193 462.211334,166.809555 455.792511,156.827484 
	C452.267151,160.254929 450.547699,164.250961 448.257812,167.822266 
	C444.664276,173.426666 441.261871,179.153214 437.736542,184.801834 
	C432.413513,193.330780 431.650330,193.637817 421.061981,191.807098 
	C420.215973,189.498917 422.385712,188.311325 423.269409,186.277649 
z"/>
<path fill="#000000" opacity="1.000000" stroke="none" 
	d="
M86.946198,190.231873 
	C98.701065,175.597626 110.425446,161.394791 121.891457,146.986374 
	C126.427322,141.286530 130.463211,135.190308 136.235504,129.666519 
	C141.360474,123.545181 146.311310,118.103378 150.050430,111.738464 
	C155.517319,105.105019 160.984192,98.471565 166.617584,91.605782 
	C169.448608,89.479912 171.116638,91.444092 172.808701,93.002869 
	C187.145325,106.210266 194.404434,122.492020 194.363419,142.068802 
	C194.309586,167.758331 182.980347,187.032135 161.258453,200.252045 
	C140.309372,213.001663 109.277100,211.392166 89.573807,196.827835 
	C87.535347,195.321014 84.592888,194.044800 86.946198,190.231873 
M162.089951,101.550026 
	C137.563873,131.892838 113.037804,162.235641 88.550613,192.530319 
	C104.069267,207.019653 132.418945,211.112656 152.905533,201.693481 
	C179.029602,189.682343 192.791489,168.996216 192.459808,140.226105 
	C192.242065,121.339180 183.968750,105.635315 169.099915,93.113235 
	C166.564972,96.168785 164.556320,98.589943 162.089951,101.550026 
z"/>
<path fill="#000000" opacity="1.000000" stroke="none" 
	d="
M138.108795,25.089281 
	C140.414139,22.351505 143.699585,23.632120 146.557297,23.895607 
	C154.645782,24.641384 162.693909,25.820364 170.636292,27.656219 
	C177.599792,29.265802 183.473175,32.499546 187.816483,38.578823 
	C172.295349,30.403875 155.620712,26.821157 138.108795,25.089281 
z"/>
<path fill="#000000" opacity="1.000000" stroke="none" 
	d="
M138.731750,19.379345 
	C135.758667,19.114626 133.114426,19.840960 130.763519,18.267103 
	C144.826889,17.227116 158.496796,18.787149 171.539810,24.412796 
	C160.840164,22.235714 150.013123,20.800108 138.731750,19.379345 
z"/>
</svg>