<svg xmlns="http://www.w3.org/2000/svg" version="1.1" xmlns:xlink="http://www.w3.org/1999/xlink" xmlns:svgjs="http://svgjs.dev/svgjs" width="1500" height="515" viewBox="0 0 1500 515"><g transform="matrix(1,0,0,1,-0.9090909090909918,-0.25343666899362916)"><svg viewBox="0 0 396 136" data-background-color="#ffffff" preserveAspectRatio="xMidYMid meet" height="515" width="1500" xmlns="http://www.w3.org/2000/svg" xmlns:xlink="http://www.w3.org/1999/xlink"><g id="tight-bounds" transform="matrix(1,0,0,1,0.2400000000000091,0.06692696501579576)"><svg viewBox="0 0 395.52 135.86614606996844" height="135.86614606996844" width="395.52"><g><svg viewBox="0 0 654.8202650284286 224.93908216506858" height="135.86614606996844" width="395.52"><g transform="matrix(1,0,0,1,0,47.66329651257168)"><svg viewBox="0 0 395.52 129.61248913992523" height="129.61248913992523" width="395.52"><g id="textblocktransform"><svg viewBox="0 0 395.52 129.61248913992523" height="129.61248913992523" width="395.52" id="textblock"><g><svg viewBox="0 0 395.52 72.77568" height="72.77568" width="395.52"><g transform="matrix(1,0,0,1,0,0)"><svg width="395.52" viewBox="3.9 -35.5 248.33 46" height="72.77568" data-palette-color="#61777f"><g class="wordmark-text-0" data-fill-palette-color="primary" id="text-0"><path d="M25.7 0L6.7-29.85 6.7 0 3.9 0 3.9-35 6.7-35 25.7-5.15 25.7-35 28.5-35 28.5 0 25.7 0ZM55.05-9.2Q55.05-5 52.75-2.25 50.45 0.5 45.8 0.5L45.8 0.5Q41.15 0.5 38.77-2.27 36.4-5.05 36.4-9.2L36.4-9.2 36.4-15.8Q36.4-20.55 38.82-23.08 41.25-25.6 45.8-25.6L45.8-25.6Q50.15-25.6 52.6-22.98 55.05-20.35 55.05-15.8L55.05-15.8 55.05-9.2ZM52.25-15.8Q52.25-19.55 50.52-21.3 48.8-23.05 45.8-23.05L45.8-23.05Q42.7-23.05 40.95-21.3 39.2-19.55 39.2-15.8L39.2-15.8 39.2-8.7Q39.2-5.7 40.97-3.85 42.75-2 45.8-2L45.8-2Q48.9-2 50.57-3.83 52.25-5.65 52.25-8.7L52.25-8.7 52.25-15.8ZM89.05 0L89.05-17.15Q89.05-20.15 87.47-21.55 85.9-22.95 83.4-22.95L83.4-22.95Q81.45-22.95 79.05-22.1L79.05-22.1 77.2-21.2Q78.05-19.5 78.05-17.3L78.05-17.3 78.05 0 75.3 0 75.3-17.15Q75.3-20.2 73.72-21.58 72.15-22.95 69.6-22.95L69.6-22.95Q68.05-22.95 66.4-22.48 64.75-22 63.4-21.25L63.4-21.25 63.4 0 60.6 0 60.6-25.05 63.4-25.05 63.15-23.45Q66.45-25.4 69.9-25.4L69.9-25.4Q71.7-25.4 73.27-24.8 74.85-24.2 75.95-23.05L75.95-23.05Q76.65-23.45 78.05-24.15L78.05-24.15Q81-25.5 83.75-25.5L83.75-25.5Q87.3-25.5 89.55-23.33 91.8-21.15 91.8-17.3L91.8-17.3 91.8 0 89.05 0ZM114.54 0Q109.14 0.55 106.74 0.55L106.74 0.55Q101.49 0.55 98.39-1.4 95.29-3.35 95.29-8.45L95.29-8.45 95.29-12.6Q95.29-17.55 98.74-19.25L98.74-19.25Q100.39-20.1 102.94-20.1L102.94-20.1Q105.29-20.1 107.69-19.33 110.09-18.55 111.74-17.3L111.74-17.3Q111.74-20.05 110.14-21.68 108.54-23.3 103.99-23.3L103.99-23.3 104.14-25.45Q108.94-25.45 111.22-23.93 113.49-22.4 114.02-20.3 114.54-18.2 114.54-14.9L114.54-14.9 114.54 0ZM111.74-15.15Q109.69-16.1 107.37-16.8 105.04-17.5 103.09-17.5L103.09-17.5Q98.04-17.5 98.04-12.45L98.04-12.45 98.04-8.1Q98.04-4.85 100.29-3.38 102.54-1.9 106.69-1.9L106.69-1.9Q108.84-1.9 111.74-2.3L111.74-2.3 111.74-15.15ZM120.24-17.3Q120.24-22.55 124.49-24.5L124.49-24.5Q126.54-25.45 129.39-25.45L129.39-25.45Q131.24-25.45 132.97-25 134.69-24.55 135.89-23.7L135.89-23.7 135.89-35 138.69-35 138.69 0 135.94 0.25Q132.69 0.6 130.84 0.6L130.84 0.6Q128.99 0.6 127.37 0.25 125.74-0.1 124.14-0.9L124.14-0.9Q122.34-1.8 121.29-3.55 120.24-5.3 120.24-7.85L120.24-7.85 120.24-17.3ZM135.89-21.25Q134.54-22 132.79-22.48 131.04-22.95 129.34-22.95L129.34-22.95Q126.54-22.95 124.77-21.58 122.99-20.2 122.99-17.15L122.99-17.15 122.99-7.8Q122.99-1.95 131.04-1.95L131.04-1.95Q132.94-1.95 135.89-2.4L135.89-2.4 135.89-21.25Z" fill="#61777f" data-fill-palette-color="primary"></path><path d="M157.29-8.9Q157.44-7.2 158.56-5.65 159.69-4.1 161.66-3.13 163.64-2.15 166.19-2.15L166.19-2.15Q170.04-2.15 172.61-3.88 175.19-5.6 175.19-9.35L175.19-9.35Q175.19-11.55 173.94-13.03 172.69-14.5 170.84-15.38 168.99-16.25 165.79-17.4L165.79-17.4Q162.34-18.6 160.26-19.63 158.19-20.65 156.76-22.4 155.34-24.15 155.34-26.9L155.34-26.9Q155.34-29.1 156.59-31.08 157.84-33.05 160.36-34.27 162.89-35.5 166.59-35.5L166.59-35.5Q169.04-35.5 170.64-35.15 172.24-34.8 173.89-34L173.89-34 173.04-31.35Q170.19-32.8 166.69-32.8L166.69-32.8Q162.84-32.8 160.54-31.2 158.24-29.6 158.24-26.75L158.24-26.75Q158.24-24.95 159.39-23.73 160.54-22.5 162.21-21.75 163.89-21 166.89-19.95L166.89-19.95Q170.54-18.7 172.79-17.63 175.04-16.55 176.61-14.58 178.19-12.6 178.19-9.6L178.19-9.6Q178.19-5 175.26-2.23 172.34 0.55 166.24 0.55L166.24 0.55Q162.54 0.55 159.91-0.83 157.29-2.2 155.91-4.38 154.54-6.55 154.44-8.9L154.44-8.9 157.29-8.9ZM199.54 0L199.54-17.15Q199.54-20.2 197.76-21.58 195.99-22.95 193.19-22.95L193.19-22.95Q191.49-22.95 189.74-22.48 187.99-22 186.64-21.25L186.64-21.25 186.64 0 183.84 0 183.84-35 186.64-35 186.64-23.7Q187.89-24.55 189.64-25.03 191.39-25.5 193.29-25.5L193.29-25.5Q195.89-25.5 198.04-24.55L198.04-24.55Q200.04-23.65 201.16-21.85 202.29-20.05 202.29-17.3L202.29-17.3 202.29 0 199.54 0ZM227.83-9.2Q227.83-5 225.53-2.25 223.23 0.5 218.58 0.5L218.58 0.5Q213.93 0.5 211.56-2.27 209.18-5.05 209.18-9.2L209.18-9.2 209.18-15.8Q209.18-20.55 211.61-23.08 214.03-25.6 218.58-25.6L218.58-25.6Q222.93-25.6 225.38-22.98 227.83-20.35 227.83-15.8L227.83-15.8 227.83-9.2ZM225.03-15.8Q225.03-19.55 223.31-21.3 221.58-23.05 218.58-23.05L218.58-23.05Q215.48-23.05 213.73-21.3 211.98-19.55 211.98-15.8L211.98-15.8 211.98-8.7Q211.98-5.7 213.76-3.85 215.53-2 218.58-2L218.58-2Q221.68-2 223.36-3.83 225.03-5.65 225.03-8.7L225.03-8.7 225.03-15.8ZM233.38 10.5L233.38-25.05 236.18-25.05 235.93-22.5Q237.28-23.95 239.11-24.7 240.93-25.45 242.73-25.45L242.73-25.45Q247.38-25.45 249.81-22.75 252.23-20.05 252.23-15.75L252.23-15.75 252.23-8.8Q252.23-4.25 249.68-1.83 247.13 0.6 242.93 0.6L242.93 0.6Q240.78 0.6 239.13 0 237.48-0.6 236.18-2.1L236.18-2.1 236.18 9.4 233.38 10.5ZM249.43-15.95Q249.43-19.6 247.51-21.25 245.58-22.9 242.93-22.9L242.93-22.9Q240.23-22.9 238.28-21.28 236.33-19.65 236.18-16.2L236.18-16.2 236.18-8.3Q236.18-5.05 238.03-3.5 239.88-1.95 242.93-1.95L242.93-1.95Q245.68-1.95 247.56-3.58 249.43-5.2 249.43-8.3L249.43-8.3 249.43-15.95Z" fill="#c8c8c8" data-fill-palette-color="secondary"></path></g></svg></g></svg></g><g transform="matrix(1,0,0,1,163.310208,89.95627143168)"><svg viewBox="0 0 232.209792 39.656217708245244" height="39.656217708245244" width="232.209792"><g transform="matrix(1,0,0,1,0,0)"><svg width="232.209792" viewBox="4 -35.01 207.85 35.5" height="39.656217708245244" data-palette-color="#c8c8c8"><path d="M23.71 0L22.05 0 7.45-25.49 7.15-27 7.15 0 4 0 4-35.01 5.64-35.01 20.24-9.5 20.56-8.01 20.56-35.01 23.71-35.01 23.71 0ZM46.92-6.86L46.92-6.86Q46.92-5.35 46.35-4 45.77-2.66 44.77-1.66 43.77-0.66 42.43-0.09 41.09 0.49 39.57 0.49L39.57 0.49 37.57 0.49Q36.06 0.49 34.71-0.09 33.37-0.66 32.37-1.66 31.37-2.66 30.8-4 30.22-5.35 30.22-6.86L30.22-6.86 30.22-18.14Q30.22-19.65 30.8-21 31.37-22.34 32.37-23.34 33.37-24.34 34.71-24.91 36.06-25.49 37.57-25.49L37.57-25.49 39.57-25.49Q41.09-25.49 42.43-24.91 43.77-24.34 44.77-23.34 45.77-22.34 46.35-21 46.92-19.65 46.92-18.14L46.92-18.14 46.92-12.26 33.23-12.26 33.23-6.69Q33.23-5.79 33.57-4.99 33.91-4.2 34.49-3.61 35.08-3.03 35.87-2.69 36.67-2.34 37.57-2.34L37.57-2.34 39.57-2.34Q40.48-2.34 41.27-2.69 42.06-3.03 42.65-3.61 43.23-4.2 43.58-4.99 43.92-5.79 43.92-6.69L43.92-6.69 43.92-8.35 46.92-7.86 46.92-6.86ZM43.92-14.6L43.92-18.31Q43.92-19.21 43.58-20.01 43.23-20.8 42.65-21.39 42.06-21.97 41.27-22.31 40.48-22.66 39.57-22.66L39.57-22.66 37.57-22.66Q36.67-22.66 35.87-22.31 35.08-21.97 34.49-21.39 33.91-20.8 33.57-20.01 33.23-19.21 33.23-18.31L33.23-18.31 33.23-14.6 43.92-14.6ZM69.62-6.86L69.62-6.86Q69.62-5.35 69.05-4 68.48-2.66 67.48-1.66 66.47-0.66 65.13-0.09 63.79 0.49 62.28 0.49L62.28 0.49 60.27 0.49Q58.76 0.49 57.42-0.09 56.07-0.66 55.07-1.66 54.07-2.66 53.5-4 52.92-5.35 52.92-6.86L52.92-6.86 52.92-18.14Q52.92-19.65 53.5-21 54.07-22.34 55.07-23.34 56.07-24.34 57.42-24.91 58.76-25.49 60.27-25.49L60.27-25.49 62.28-25.49Q63.79-25.49 65.13-24.91 66.47-24.34 67.48-23.34 68.48-22.34 69.05-21 69.62-19.65 69.62-18.14L69.62-18.14 69.62-6.86ZM66.62-6.69L66.62-18.31Q66.62-19.21 66.28-20.01 65.94-20.8 65.35-21.39 64.77-21.97 63.97-22.31 63.18-22.66 62.28-22.66L62.28-22.66 60.27-22.66Q59.37-22.66 58.58-22.31 57.78-21.97 57.2-21.39 56.61-20.8 56.27-20.01 55.93-19.21 55.93-18.31L55.93-18.31 55.93-6.69Q55.93-5.79 56.27-4.99 56.61-4.2 57.2-3.61 57.78-3.03 58.58-2.69 59.37-2.34 60.27-2.34L60.27-2.34 62.28-2.34Q63.18-2.34 63.97-2.69 64.77-3.03 65.35-3.61 65.94-4.2 66.28-4.99 66.62-5.79 66.62-6.69L66.62-6.69ZM107.83 0L106.17 0 91.57-25.49 91.27-27 91.27 0 88.12 0 88.12-35.01 89.76-35.01 104.36-9.5 104.68-8.01 104.68-35.01 107.83-35.01 107.83 0ZM131.04-6.86L131.04-6.86Q131.04-5.35 130.47-4 129.89-2.66 128.89-1.66 127.89-0.66 126.55-0.09 125.21 0.49 123.69 0.49L123.69 0.49 121.69 0.49Q120.18 0.49 118.84-0.09 117.49-0.66 116.49-1.66 115.49-2.66 114.92-4 114.34-5.35 114.34-6.86L114.34-6.86 114.34-18.14Q114.34-19.65 114.92-21 115.49-22.34 116.49-23.34 117.49-24.34 118.84-24.91 120.18-25.49 121.69-25.49L121.69-25.49 123.69-25.49Q125.21-25.49 126.55-24.91 127.89-24.34 128.89-23.34 129.89-22.34 130.47-21 131.04-19.65 131.04-18.14L131.04-18.14 131.04-6.86ZM128.04-6.69L128.04-18.31Q128.04-19.21 127.7-20.01 127.36-20.8 126.77-21.39 126.18-21.97 125.39-22.31 124.6-22.66 123.69-22.66L123.69-22.66 121.69-22.66Q120.79-22.66 119.99-22.31 119.2-21.97 118.62-21.39 118.03-20.8 117.69-20.01 117.35-19.21 117.35-18.31L117.35-18.31 117.35-6.69Q117.35-5.79 117.69-4.99 118.03-4.2 118.62-3.61 119.2-3.03 119.99-2.69 120.79-2.34 121.69-2.34L121.69-2.34 123.69-2.34Q124.6-2.34 125.39-2.69 126.18-3.03 126.77-3.61 127.36-4.2 127.7-4.99 128.04-5.79 128.04-6.69L128.04-6.69ZM166.44 0L163.44 0 163.44-18.31Q163.44-19.21 163.1-20.01 162.75-20.8 162.17-21.39 161.58-21.97 160.79-22.31 159.99-22.66 159.09-22.66L159.09-22.66 157.6-22.66Q156.7-22.66 155.91-22.31 155.11-21.97 154.51-21.39 153.92-20.8 153.57-20.01 153.23-19.21 153.23-18.31L153.23-18.31 153.23 0 150.25 0 150.25-18.31Q150.25-19.21 149.91-20.01 149.57-20.8 148.97-21.39 148.37-21.97 147.58-22.31 146.79-22.66 145.88-22.66L145.88-22.66 144.39-22.66Q143.49-22.66 142.7-22.31 141.9-21.97 141.32-21.39 140.73-20.8 140.39-20.01 140.05-19.21 140.05-18.31L140.05-18.31 140.05 0 137.05 0 137.05-25 138.05-25 139.68-22.46Q140.71-23.85 142.26-24.67 143.81-25.49 145.64-25.49L145.64-25.49 145.88-25.49Q148.01-25.49 149.72-24.44 151.43-23.39 152.35-21.66L152.35-21.66Q152.82-22.51 153.5-23.22 154.18-23.93 155.01-24.43 155.84-24.93 156.82-25.21 157.8-25.49 158.85-25.49L158.85-25.49 159.09-25.49Q160.61-25.49 161.95-24.91 163.29-24.34 164.29-23.34 165.29-22.34 165.87-21 166.44-19.65 166.44-18.14L166.44-18.14 166.44 0ZM189.14 0L188.14 0 186.48-2.49Q185.46-1.15 183.92-0.33 182.38 0.49 180.55 0.49L180.55 0.49 179.79 0.49Q178.28 0.49 176.94-0.09 175.59-0.66 174.59-1.66 173.59-2.66 173.02-4 172.44-5.35 172.44-6.86L172.44-6.86 172.44-7.1Q172.44-8.62 173.02-9.96 173.59-11.3 174.59-12.3 175.59-13.31 176.94-13.88 178.28-14.45 179.79-14.45L179.79-14.45 186.14-14.45 186.14-18.31Q186.14-19.21 185.8-20.01 185.46-20.8 184.87-21.39 184.28-21.97 183.49-22.31 182.7-22.66 181.79-22.66L181.79-22.66 180.04-22.66Q179.13-22.66 178.34-22.31 177.55-21.97 176.96-21.39 176.37-20.8 176.03-20.01 175.69-19.21 175.69-18.31L175.69-18.31 175.69-17.41 172.69-17.9 172.69-18.14Q172.69-19.65 173.26-21 173.84-22.34 174.84-23.34 175.84-24.34 177.18-24.91 178.52-25.49 180.04-25.49L180.04-25.49 181.79-25.49Q183.31-25.49 184.65-24.91 185.99-24.34 186.99-23.34 188-22.34 188.57-21 189.14-19.65 189.14-18.14L189.14-18.14 189.14 0ZM186.14-6.69L186.14-12.11 179.79-12.11Q178.89-12.11 178.1-11.77 177.3-11.43 176.72-10.83 176.13-10.23 175.79-9.44 175.45-8.64 175.45-7.74L175.45-7.74 175.45-6.69Q175.45-5.79 175.79-4.99 176.13-4.2 176.72-3.61 177.3-3.03 178.1-2.69 178.89-2.34 179.79-2.34L179.79-2.34 181.79-2.34Q182.7-2.34 183.49-2.69 184.28-3.03 184.87-3.61 185.46-4.2 185.8-4.99 186.14-5.79 186.14-6.69L186.14-6.69ZM211.85 0L210.84 0 209.18-2.54Q208.16-1.15 206.62-0.33 205.08 0.49 203.25 0.49L203.25 0.49 202.49 0.49Q200.98 0.49 199.64-0.09 198.3-0.66 197.29-1.66 196.29-2.66 195.72-4 195.15-5.35 195.15-6.86L195.15-6.86 195.15-18.14Q195.15-19.65 195.72-21 196.29-22.34 197.29-23.34 198.3-24.34 199.64-24.91 200.98-25.49 202.49-25.49L202.49-25.49 203.25-25.49Q204.94-25.49 206.38-24.8 207.82-24.12 208.84-22.9L208.84-22.9 208.84-35.01 211.85-35.01 211.85 0ZM208.84-6.69L208.84-18.31Q208.84-19.21 208.5-20.01 208.16-20.8 207.57-21.39 206.99-21.97 206.19-22.31 205.4-22.66 204.5-22.66L204.5-22.66 202.49-22.66Q201.59-22.66 200.8-22.31 200-21.97 199.42-21.39 198.83-20.8 198.49-20.01 198.15-19.21 198.15-18.31L198.15-18.31 198.15-6.69Q198.15-5.79 198.49-4.99 198.83-4.2 199.42-3.61 200-3.03 200.8-2.69 201.59-2.34 202.49-2.34L202.49-2.34 204.5-2.34Q205.4-2.34 206.19-2.69 206.99-3.03 207.57-3.61 208.16-4.2 208.5-4.99 208.84-5.79 208.84-6.69L208.84-6.69Z" opacity="1" transform="matrix(1,0,0,1,0,0)" fill="#c8c8c8" class="slogan-text-1" data-fill-palette-color="secondary" id="text-1"></path></svg></g></svg></g></svg></g></svg></g><g transform="matrix(1,0,0,1,429.88118286336,0)"><svg viewBox="0 0 224.93908216506858 224.93908216506858" height="224.93908216506858" width="224.93908216506858"><g><svg></svg></g><g id="icon-0"><svg viewBox="0 0 224.93908216506858 224.93908216506858" height="224.93908216506858" width="224.93908216506858"><g><path d="M0 112.47c0-62.115 50.354-112.47 112.47-112.47 62.115 0 112.47 50.354 112.469 112.47 0 62.115-50.354 112.47-112.469 112.469-62.115 0-112.47-50.354-112.47-112.469zM112.47 218.376c58.491 0 105.907-47.416 105.906-105.906 0-58.491-47.416-105.907-105.906-105.907-58.491 0-105.907 47.416-105.907 105.907 0 58.491 47.416 105.907 105.907 105.906z" data-fill-palette-color="accent" fill="#c8c8c8" stroke="transparent"></path></g><g transform="matrix(1,0,0,1,49.57926574252715,61.96721425347041)"><svg viewBox="0 0 125.78055068001429 101.00465365812776" height="101.00465365812776" width="125.78055068001429"><g><svg xmlns="http://www.w3.org/2000/svg" xmlns:xlink="http://www.w3.org/1999/xlink" version="1.1" x="0" y="0" viewBox="5.0717730656980216 13.871274632329378 89.94604231218081 72.22872536767062" enable-background="new 0 0 100 100" xml:space="preserve" height="101.00465365812776" width="125.78055068001429" class="icon-dxe-0" data-fill-palette-color="accent" id="dxe-0"><path d="M60.2 30.9L53.8 24C52.6 22.7 50.9 22 49.1 22H48.3C46.9 22 45.6 21.4 44.7 20.4L42.5 17.8C38.3 13.3 31.2 13.2 27 17.7L24.8 20C23.6 21.2 22.1 21.9 20.4 22 14.6 22.5 9.5 26 6.9 31.2 5.3 34.5 4.7 38.2 5.3 41.7L8.9 62.5V71.6L13.8 82.7V86H19.6V84.6L16.2 82.7 12.3 71.5 12.5 65.5 18.7 78.3 19.3 81.2H24.9V79.5L21.3 78.1 16.5 65 19.4 51.4 22.2 48.3C26.2 50.4 31.7 51.6 37.7 51.6 39.4 51.6 41 51.5 42.5 51.3L44.5 63 44.6 86.1H50.4V84.5L50.3 84.4H52.8V82.8L49.4 81 50.8 62.8 59.1 44.7H65.7C66.1 44.7 66.6 44.6 67 44.6 67.7 44.5 68.5 44.3 69.2 44.1S70.6 43.6 71.2 43.3 72.4 42.7 73 42.3C73.3 42.1 73.6 41.9 73.8 41.7 73.9 41.6 74.1 41.5 74.2 41.4L74.6 41.1C74.7 41 74.8 40.9 75 40.8 75.1 40.7 75.2 40.6 75.4 40.5L75.7 40.2 76 39.9 76.6 39.3 76.9 39 77 38.9 77.1 38.8 77.2 38.7 77.5 38.3 77.6 38.2 77.7 38.1 77.9 37.9C78 37.8 78.1 37.6 78.2 37.5S78.4 37.2 78.5 37.1C78.9 36.6 79.2 36 79.5 35.5 80.1 34.4 80.6 33.3 81 32.3 81.1 32.1 81.1 32 81.2 31.8L82 32.6V29L83.1 30.1V26.8L84.1 27.8V25L87.9 22.9H92.5C93.3 22.9 93.9 22.3 93.9 21.5V21.3H94C94.9 21.3 95.3 20.3 94.8 19.6L93 17.2C92.6 16.6 91.9 16.3 91.2 16.3H86L83.9 15.3H79.5L78.2 14.2C77.7 13.7 76.9 13.8 76.4 14.3L77.3 16.4 78.1 17C78.1 17.1 78 17.2 78 17.3L73.5 28.3C71.8 31.8 68.5 34.2 66.1 34.2 63.2 34.1 60.2 30.9 60.2 30.9M47 82.7V82.5z" fill="#c8c8c8" data-fill-palette-color="accent"></path></svg></g></svg></g></svg></g></svg></g></svg></g><defs></defs></svg><rect width="395.52" height="135.86614606996844" fill="none" stroke="none" visibility="hidden"></rect></g></svg></g></svg>